{"title":"Arjun- Can't Forget You (Tujhe Bhula Diya) VIDEO Song ft. Jonita","uid":12411594,"size":43510022,"categoryP":"video","categoryS":"music_videos","magnet":"?xt=urn:btih:a836dc9acfe7c403979003ae321ace00b42956f0&amp;dn=Arjun-+Can%27t+Forget+You+%28Tujhe+Bhula+Diya%29+VIDEO+Song+ft.+Jonita&amp;tr=udp%3A%2F%2Ftracker.openbittorrent.com%3A80&amp;tr=udp%3A%2F%2Fopen.demonii.com%3A1337&amp;tr=udp%3A%2F%2Ftracker.coppersurfer.tk%3A6969&amp;tr=udp%3A%2F%2Fexodus.desync.com%3A6969","seeders":0,"leechers":1,"uploader":"Aainul","files":5,"time":1442157134,"description":"Arjun- Can't Forget You (Tujhe Bhula Diya) VIDEO Song ft  Jonita Gandhi - Full HD 1080p - Team truHD HEVC \n\n\n\nTeam truHD HEVC Presents \n\nSource: WEB-DL \n\nEncoder: truHD HEVC Encoding Team \n\nEncoded File Info: \n\nGeneral \n\nFormat                                   : MPEG-4 \nFormat profile                           : Base Media \nCodec ID                                 : iso4 \nFile size                                : 41.3 MiB \nDuration                                 : 5mn 0s \nOverall bit rate                         : 1 153 Kbps \nEncoded date                             : UTC 2015-09-12 10:13:18 \nTagged date                              : UTC 2015-09-12 10:13:18 \n\nVideo \nID                                       : 1 \nFormat                                   : HEVC \nFormat/Info                              : High Efficiency Video Coding \nCodec ID                                 : hvc1 \nCodec ID/Info                            : High Efficiency Video Coding \nDuration                                 : 5mn 0s \nBit rate                                 : 958 Kbps \nMaximum bit rate                         : 2 600 Kbps \nWidth                                    : 1 920 pixels \nHeight                                   : 1 080 pixels \nDisplay aspect ratio                     : 16:9 \nFrame rate mode                          : Constant \nFrame rate                               : 25.000 fps \nBits/(Pixel*Frame)                       : 0.018 \nStream size                              : 34.3 MiB (83%) \nTitle                                    : Video \nEncoded date                             : UTC 2015-09-12 10:13:18 \nTagged date                              : UTC 2015-09-12 10:13:22 \n\nAudio \nID                                       : 2 \nFormat                                   : AC-3 \nFormat/Info                              : Audio Coding 3 \nMode extension                           : CM (complete main) \nFormat settings, Endianness              : Big \nCodec ID                                 : ac-3 \nDuration                                 : 5mn 0s \nBit rate mode                            : Constant \nBit rate                                 : 192 Kbps \nMaximum bit rate                         : 201 Kbps \nChannel(s)                               : 6 channels \nChannel positions                        : Front: L C R, Side: L R, LFE \nSampling rate                            : 44.1 KHz \nBit depth                                : 16 bits \nCompression mode                         : Lossy \nStream size                              : 6.87 MiB (17%) \nTitle                                    : Team truHD truAudio \nEncoded date                             : UTC 2015-09-12 10:13:21 \nTagged date                              : UTC 2015-09-12 10:13:22 \n\n\nScreenShots:\n &lt;a href=&quot;\nhttp://i.imgur.com/1gKdjvo.jpg&quot; rel=&quot;nofollow&quot; target=&quot;_NEW&quot;&gt;\nhttp://i.imgur.com/1gKdjvo.jpg&lt;/a&gt;\n\n\n\nLike Us On FB And Request Accepted\n\nKickAssTorrents:      &lt;a href=&quot;\nhttps://kat.cr/user/Aainul/&quot; rel=&quot;nofollow&quot; target=&quot;_NEW&quot;&gt;\nhttps://kat.cr/user/Aainul/&lt;/a&gt;\nGloTorrents:      &lt;a href=&quot;\nhttps://glodls.to/user/Aainul&quot; rel=&quot;nofollow&quot; target=&quot;_NEW&quot;&gt;\nhttps://glodls.to/user/Aainul&lt;/a&gt;\nThePirateBay:      &lt;a href=&quot;\nhttps://thepiratebay.vg/user/Aainul/&quot; rel=&quot;nofollow&quot; target=&quot;_NEW&quot;&gt;\nhttps://thepiratebay.vg/user/Aainul/&lt;/a&gt;\n1337x Torrents:      &lt;a href=&quot;\nhttp://1337.to/user/Aainul/&quot; rel=&quot;nofollow&quot; target=&quot;_NEW&quot;&gt;\nhttp://1337.to/user/Aainul/&lt;/a&gt;\n\n\nNote: All Videos Uploaded By Me Are For Review Purpose. If You Like IT, Google IT And Buy IT - Thanks\n\n\nKing Regards\ntruHD HEVC Team\n\nShare Among Friends And Relatives","torrent":{"xt":"urn:btih:a836dc9acfe7c403979003ae321ace00b42956f0","amp;dn":"Arjun-+Can%27t+Forget+You+%28Tujhe+Bhula+Diya%29+VIDEO+Song+ft.+Jonita","amp;tr":["udp%3A%2F%2Ftracker.openbittorrent.com%3A80","udp%3A%2F%2Fopen.demonii.com%3A1337","udp%3A%2F%2Ftracker.coppersurfer.tk%3A6969","udp%3A%2F%2Fexodus.desync.com%3A6969"],"infoHash":"a836dc9acfe7c403979003ae321ace00b42956f0","infoHashBuffer":{"type":"Buffer","data":[168,54,220,154,207,231,196,3,151,144,3,174,50,26,206,0,180,41,86,240]},"announce":[],"urlList":[]}}